<?xml version="1.0" encoding="UTF-8"?>
<svg version="1.1" viewBox="0 0 1350 950" width="1350" height="950" xmlns="http://www.w3.org/2000/svg">
    <path transform="translate(672,10)" d="m0 0 5 1 24 13 18 10 24 13 23 13 30 16 23 13 30 16 23 13 30 16 23 13 19 10 23 13 30 16 23 13 32 17 18 10 24 13 23 13 30 16 23 13 30 16 23 13 30 16 23 13 30 16 11 6-3 9-18 42-22 51-41 95-41 95-41 95-63 146-16 37-1 1h-795l-6-12-15-35-41-95-41-95-41-95-41-95-41-95-20-47v-2l32-17 18-10 24-13 23-13 30-16 23-13 30-16 23-13 30-16 23-13 30-16 23-13 19-10 23-13 30-16 23-13 32-17 18-10 24-13 23-13 30-16 23-13 30-16 23-13 30-16z" fill="#FEFEFE"/>
    <path transform="translate(1016,353)" d="m0 0 4 1 9 9 8 7 13 12 12 11v3l-7 7-7 8-12 13-9 10-12 13-9 10-12 13-9 10-12 13-11 12-9 10-10 11-1 2h10l27 4 24 6 20 8 18 10 14 11 10 9 10 10 11 15 9 17 5 15 3 14 1 9v16l-2 18-4 17-9 24-11 21-12 19-11 14-8 10-12 13-11 12-12 11-17 13-10 7-15 9-20 9-21 7-19 4-9 1h-28l-21-3-17-5-14-6-18-11-10-8-10-9-15-15-10-13-11-19-9-19-6-16-11 7-4 1-10-9-13-12-12-11-7-6 6-7 9-10 12-13 9-10 12-13 22-24 9-10 12-13 11-12 9-10 12-13 11-12 9-10 12-13 22-24 9-10 12-13 11-12 9-10 12-13 11-12 9-10 12-13 11-12 9-10 12-13 22-24 9-10 12-13z"/>
    <path transform="translate(677,71)" d="m0 0h10l12 6 8 7 7 11 5 11 5 18 2 15v21l-2 18-4 20-7 20-13 27-9 14-8 12-13 16-7 8 1 9 9 48h14l17 3 14 6 16 12 8 8 10 13 5 10 4 17v26l-5 20-7 16-12 17-7 8-15 11-6 3h-2l8 38 3 17 1 10v20l-4 18-7 14-9 11-10 8-13 6-12 3-8 1h-13l-15-3-13-7-10-8-8-9-7-14-3-10-1-14 2-9 4-8 8-9 10-6 9-2h9l9 2 10 6 7 7 6 12 1 4v15l-4 11-9 10-5 4-8 4-7 2 7 3 5 1h17l17-4 9-6 7-9 6-13 3-14v-22l-10-54-10 2h-28l-17-3-17-6-19-10-14-10-14-13-13-17-8-15-7-21-2-12v-30l5-23 6-16 12-23 12-16 10-13 7-7 7-8 10-10 8-7 7-7 10-8 1-4-6-32-3-22-1-13v-13l2-21 5-21 6-15 8-16 8-11 5-6 10-7z"/>
    <path transform="translate(297,363)" d="m0 0 4 1 15 15 7 8 68 68 7 8 68 68 7 8 68 68 7 8 12 12 10 13 8 13 6 12 6 18 2 12v26l-3 17-5 15-6 14-12 19-10 13-14 15-7 7-11 9-12 10-13 10-15 11-11 6-14 6-21 6-30 5-37 4h-19l-13-56v-3l6-1 15 1h35l19-3 18-5 10-4 23-13 16-11 15-13 10-10 13-17 8-15 3-11v-19l-5-14-7-12-10-13-24-26-59-59-7-8-75-75-7-8-47-47-7 6-64 64-4-1-34-34 2-4 54-54 8-7z"/>
    <path transform="translate(905,566)" d="m0 0 14 1 22 4 26 8 11 5 12 6 14 10 10 9 8 8 9 13 5 10 4 15v20l-4 17-6 15-10 18-12 17-11 14-15 16-15 15-14 11-13 9-17 9-15 5-10 2h-24l-15-3-15-6-14-8-11-9-12-11-12-13-10-14-9-16-8-16-2-5 1-5 7-7 7-8 14-15 9-10 33-36 9-10 12-13 11-12 9-10 12-13 11-12z" fill="#FEFEFE"/>
    <path transform="translate(647,313)" d="m0 0 2 4 4 21 3 19-14 7-13 10-10 10-8 13-5 11-3 12v15l4 15 6 11 9 10 10 8 14 8 7 3h6l-1-5-11-9-8-9-3-7-1-5v-20l3-11 4-8 6-8 10-6 7-2 16 83 5 26-8 2-10 1h-9l-15-2-15-5-13-7-9-7-5-4-9-11-8-13-6-15-3-12-1-9v-15l4-18 8-16 10-13 16-17 15-15 7-8z" fill="#FEFEFE"/>
    <path transform="translate(688,120)" d="m0 0h8l3 3 3 9 1 7v11l-3 15-7 21-8 16-9 14-11 12-13 12h-2l-4-23-1-12v-15l2-16 6-18 6-12 8-10 7-7z" fill="#FEFEFE"/>
    <path transform="translate(682,398)" d="m0 0 16 4 12 6 8 7 7 10 5 14 1 13-3 16-5 13-6 10-9 8-3 2h-3l-20-100z" fill="#FEFEFE"/>
</svg>