<?xml version="1.0" encoding="UTF-8"?>
<svg version="1.1" viewBox="0 0 1033 878" width="1033" height="878" xmlns="http://www.w3.org/2000/svg">
    <path transform="translate(886,320)" d="m0 0 8 6 7 7 8 7 15 14 7 6-2 5-8 8-7 8-14 15-7 8-12 13-11 12-9 10-12 13-9 10-12 13-11 12-6 7 31 4 26 6 20 7 17 9 11 8 14 11 13 13 10 13 9 16 6 16 4 18 1 21-2 20-6 24-10 24-11 20-11 16-10 13-9 11-12 13-10 11-8 7-13 11-19 13-16 9-20 9-15 5-17 4-16 2h-24l-21-3-21-6-19-9-12-8-10-8-12-11-11-11-10-13-9-15-8-16-7-16-3-8-12 7h-4l-36-33-4-3 1-4 7-7 7-8 14-15 9-10 44-48 9-10 12-13 11-12 9-10 12-13 11-12 9-10 12-13 22-24 9-10 12-13 11-12 9-10 12-13 11-12 9-10 12-13 11-12 9-10 12-13 22-24 9-10zm-112 213-16 17-9 10-33 36-9 10-12 13-11 12-9 10-12 13-11 12-18 20 2 6 8 17 8 14 8 12 11 13 15 15 13 10 14 8 12 5 16 4 14 1 18-2 17-5 16-8 15-10 11-9 10-9 8-7 7-8 12-13 12-16 10-15 10-19 6-17 2-9v-24l-5-16-8-14-8-10-8-7-10-9-14-9-17-8-21-7-21-5-14-2z"/>
    <path transform="translate(166,330)" d="m0 0 4 1 11 12 65 65 7 8 68 68 7 8 66 66 7 8 26 26 8 10 7 10 8 14 5 11 5 19 1 7v24l-3 17-5 16-10 21-12 17-9 11-14 15-14 12-12 10-17 13-14 10-15 8-15 5-25 6-37 5-23 2h-14l-3-9-11-48v-2l5-1 12 1h41l18-3 20-6 9-4 23-13 14-10 11-9 16-16 12-16 7-14 3-10 1-13-2-11-5-13-7-11-9-11-10-11-7-8-40-40-7-8-79-79-7-8-68-68v-2l-8 7-48 48-8 7-9 9-4-2-33-33 2-4 37-37 8-7z"/>
    <path transform="translate(546,38)" d="m0 0h10l12 6 8 7 7 11 5 11 5 18 2 15v21l-2 18-4 20-7 20-13 27-9 14-8 12-13 16-7 8 1 9 9 48h14l17 3 14 6 16 12 8 8 10 13 5 10 4 17v26l-5 20-7 16-12 17-7 8-15 11-6 3h-2l8 38 3 17 1 10v20l-4 18-7 14-9 11-10 8-13 6-12 3-8 1h-13l-15-3-13-7-10-8-8-9-7-14-3-10-1-14 2-9 4-8 8-9 10-6 9-2h9l9 2 10 6 7 7 6 12 1 4v15l-4 11-9 10-5 4-8 4-7 2 7 3 5 1h17l17-4 9-6 7-9 6-13 3-14v-22l-10-54-10 2h-28l-17-3-17-6-19-10-14-10-14-13-13-17-8-15-7-21-2-12v-30l5-23 6-16 12-23 12-16 10-13 7-7 7-8 10-10 8-7 7-7 10-8 1-4-6-32-3-22-1-13v-13l2-21 5-21 6-15 8-16 8-11 5-6 10-7zm11 49-14 7-10 10-9 14-6 16-3 13-1 10v15l2 19 3 16 4-2 16-15 9-11 9-15 8-19 6-21 1-7v-11l-3-14-2-4-2-1zm-41 193-18 18-7 8-18 18-7 8-10 13-8 16-4 18v15l2 14 6 18 9 16 9 10 5 5 7 6 14 8 14 5 8 2 10 1h9l15-2 3-1-5-26-14-72-2-11-9 3-9 6-8 12-3 9-1 5v20l3 10 7 9 10 9 4 3v4h-6l-16-8-13-9-9-9-7-11-4-13-1-5v-15l4-15 9-17 11-12 9-8 11-7 9-4-5-30-3-14zm35 85 2 12 6 31 12 60 4-1 8-6 7-9 5-11 4-14 1-14-3-14-6-12-7-8-10-7-13-5z"/>
</svg>
